<svg width="20" height="20" viewBox="0 0 20 20" fill="none" xmlns="http://www.w3.org/2000/svg">
<path d="M7.91666 11.6665C9.29741 11.6665 10.4167 12.7858 10.4167 14.1665C10.4167 15.5472 9.29741 16.6665 7.91666 16.6665C6.53595 16.6665 5.41666 15.5472 5.41666 14.1665C5.41666 12.7858 6.53595 11.6665 7.91666 11.6665Z" stroke="#797979" stroke-width="1.4375"/>
<path d="M12.0833 3.33301C10.7026 3.33301 9.58334 4.45229 9.58334 5.83301C9.58334 7.21372 10.7026 8.33301 12.0833 8.33301C13.4641 8.33301 14.5833 7.21372 14.5833 5.83301C14.5833 4.45229 13.4641 3.33301 12.0833 3.33301Z" stroke="#797979" stroke-width="1.4375"/>
<path d="M12.5 14.1323H18.3333" stroke="#797979" stroke-width="1.4375" stroke-linecap="round"/>
<path d="M7.50002 5.79883H1.66669" stroke="#797979" stroke-width="1.4375" stroke-linecap="round"/>
<path d="M1.66669 14.1323H3.33335" stroke="#797979" stroke-width="1.4375" stroke-linecap="round"/>
<path d="M18.3333 5.79883H16.6667" stroke="#797979" stroke-width="1.4375" stroke-linecap="round"/>
</svg>
