<svg width="21" height="18" viewBox="0 0 21 18" fill="none" xmlns="http://www.w3.org/2000/svg">
<path d="M5.8022 7.96606C5.73813 7.90199 5.73813 7.79817 5.8022 7.7341L6.30191 7.23436C6.36598 7.17029 6.36598 7.06647 6.30191 7.0024L5.69765 6.39815C5.63358 6.33408 5.52975 6.33408 5.46568 6.39815L4.96596 6.89785C4.9019 6.96192 4.79807 6.96192 4.734 6.89785L4.23428 6.39815C4.17021 6.33408 4.06639 6.33408 4.00232 6.39815L3.39805 7.0024C3.33398 7.06647 3.33398 7.17029 3.39805 7.23436L3.89777 7.7341C3.96184 7.79817 3.96184 7.90199 3.89777 7.96606L3.39805 8.4658C3.33398 8.52987 3.33398 8.63369 3.39805 8.69776L4.00232 9.30201C4.06639 9.36608 4.17021 9.36608 4.23428 9.30201L4.73403 8.80231C4.7981 8.73824 4.90193 8.73824 4.966 8.80231L5.46572 9.30205C5.52978 9.36611 5.63361 9.36611 5.69768 9.30205L6.30195 8.69779C6.36602 8.63373 6.36602 8.5299 6.30195 8.46583L5.8022 7.96606Z" stroke="white" stroke-width="0.7" stroke-miterlimit="10" stroke-linecap="round" stroke-linejoin="round"/>
<path d="M16.8022 7.96606C16.7382 7.90199 16.7382 7.79817 16.8022 7.7341L17.3019 7.23436C17.366 7.17029 17.366 7.06647 17.3019 7.0024L16.6977 6.39815C16.6336 6.33408 16.5298 6.33408 16.4657 6.39815L15.966 6.89785C15.9019 6.96192 15.7981 6.96192 15.734 6.89785L15.2343 6.39815C15.1702 6.33408 15.0664 6.33408 15.0023 6.39815L14.398 7.0024C14.334 7.06647 14.334 7.17029 14.398 7.23436L14.8978 7.7341C14.9618 7.79817 14.9618 7.90199 14.8978 7.96606L14.398 8.4658C14.334 8.52987 14.334 8.63369 14.398 8.69776L15.0023 9.30201C15.0664 9.36608 15.1702 9.36608 15.2343 9.30201L15.734 8.80231C15.7981 8.73824 15.9019 8.73824 15.966 8.80231L16.4657 9.30205C16.5298 9.36611 16.6336 9.36611 16.6977 9.30205L17.3019 8.69779C17.366 8.63373 17.366 8.5299 17.3019 8.46583L16.8022 7.96606Z" stroke="white" stroke-width="0.7" stroke-miterlimit="10" stroke-linecap="round" stroke-linejoin="round"/>
<path d="M5.8022 12.9661C5.73813 12.902 5.73813 12.7982 5.8022 12.7341L6.30191 12.2344C6.36598 12.1703 6.36598 12.0665 6.30191 12.0024L5.69765 11.3981C5.63358 11.3341 5.52975 11.3341 5.46568 11.3981L4.96596 11.8979C4.9019 11.9619 4.79807 11.9619 4.734 11.8979L4.23428 11.3981C4.17021 11.3341 4.06639 11.3341 4.00232 11.3981L3.39805 12.0024C3.33398 12.0665 3.33398 12.1703 3.39805 12.2344L3.89777 12.7341C3.96184 12.7982 3.96184 12.902 3.89777 12.9661L3.39805 13.4658C3.33398 13.5299 3.33398 13.6337 3.39805 13.6978L4.00232 14.302C4.06639 14.3661 4.17021 14.3661 4.23428 14.302L4.73403 13.8023C4.7981 13.7382 4.90193 13.7382 4.966 13.8023L5.46572 14.302C5.52978 14.3661 5.63361 14.3661 5.69768 14.302L6.30195 13.6978C6.36602 13.6337 6.36602 13.5299 6.30195 13.4658L5.8022 12.9661Z" stroke="white" stroke-width="0.7" stroke-miterlimit="10" stroke-linecap="round" stroke-linejoin="round"/>
<path d="M10.8022 12.9661C10.7382 12.902 10.7382 12.7982 10.8022 12.7341L11.3019 12.2344C11.366 12.1703 11.366 12.0665 11.3019 12.0024L10.6977 11.3981C10.6336 11.3341 10.5298 11.3341 10.4657 11.3981L9.966 11.8979C9.90193 11.9619 9.7981 11.9619 9.73403 11.8979L9.23428 11.3981C9.17021 11.3341 9.06639 11.3341 9.00232 11.3981L8.39805 12.0024C8.33398 12.0665 8.33398 12.1703 8.39805 12.2344L8.89777 12.7341C8.96184 12.7982 8.96184 12.902 8.89777 12.9661L8.39805 13.4658C8.33398 13.5299 8.33398 13.6337 8.39805 13.6978L9.00232 14.302C9.06639 14.3661 9.17021 14.3661 9.23428 14.302L9.73403 13.8023C9.7981 13.7382 9.90193 13.7382 9.966 13.8023L10.4657 14.302C10.5298 14.3661 10.6336 14.3661 10.6977 14.302L11.3019 13.6978C11.366 13.6337 11.366 13.5299 11.3019 13.4658L10.8022 12.9661Z" stroke="white" stroke-width="0.7" stroke-miterlimit="10" stroke-linecap="round" stroke-linejoin="round"/>
<path d="M0.349998 4.3158V2.75964C0.349998 2.05452 0.980541 1.48291 1.75836 1.48291H2.80939" stroke="white" stroke-width="0.7" stroke-miterlimit="10" stroke-linecap="round" stroke-linejoin="round"/>
<path d="M11.5645 1.48291H9.14492" stroke="white" stroke-width="0.7" stroke-miterlimit="10" stroke-linecap="round" stroke-linejoin="round"/>
<path d="M17.8871 1.48291H18.9385C19.7163 1.48291 20.3469 2.05452 20.3469 2.75964V4.3158" stroke="white" stroke-width="0.7" stroke-miterlimit="10" stroke-linecap="round" stroke-linejoin="round"/>
<path d="M15.9317 1.48291H13.5121" stroke="white" stroke-width="0.7" stroke-miterlimit="10" stroke-linecap="round" stroke-linejoin="round"/>
<path d="M7.18904 1.48291H4.76992" stroke="white" stroke-width="0.7" stroke-miterlimit="10" stroke-linecap="round" stroke-linejoin="round"/>
<path d="M20.342 9.23544V4.31885H3.33361" stroke="white" stroke-width="0.7" stroke-miterlimit="10" stroke-linecap="round" stroke-linejoin="round"/>
<path d="M1.92588 4.31885H0.349998V16.0728C0.349998 16.7779 0.980335 17.3495 1.7579 17.3495H18.9343C19.7118 17.3495 20.3422 16.7779 20.3422 16.0728V10.5122" stroke="white" stroke-width="0.7" stroke-miterlimit="10" stroke-linecap="round" stroke-linejoin="round"/>
<path d="M4.32248 3.18284H3.25237C3.03013 3.18284 2.84998 3.01953 2.84998 2.81806V0.714879C2.84998 0.51341 3.03013 0.350098 3.25237 0.350098H4.32248C4.54472 0.350098 4.72487 0.51341 4.72487 0.714879V2.81806C4.72487 3.01953 4.54472 3.18284 4.32248 3.18284Z" stroke="white" stroke-width="0.7" stroke-miterlimit="10" stroke-linecap="round" stroke-linejoin="round"/>
<path d="M8.69745 3.18284H7.62734C7.4051 3.18284 7.22495 3.01953 7.22495 2.81806V0.714879C7.22495 0.51341 7.4051 0.350098 7.62734 0.350098H8.69745C8.91969 0.350098 9.09984 0.51341 9.09984 0.714879V2.81806C9.09984 3.01953 8.91965 3.18284 8.69745 3.18284Z" stroke="white" stroke-width="0.7" stroke-miterlimit="10" stroke-linecap="round" stroke-linejoin="round"/>
<path d="M13.0724 3.18284H12.0023C11.7801 3.18284 11.5999 3.01953 11.5999 2.81806V0.714879C11.5999 0.51341 11.7801 0.350098 12.0023 0.350098H13.0724C13.2947 0.350098 13.4748 0.51341 13.4748 0.714879V2.81806C13.4748 3.01953 13.2947 3.18284 13.0724 3.18284Z" stroke="white" stroke-width="0.7" stroke-miterlimit="10" stroke-linecap="round" stroke-linejoin="round"/>
<path d="M17.4397 3.18284H16.3696C16.1473 3.18284 15.9672 3.01953 15.9672 2.81806V0.714879C15.9672 0.51341 16.1473 0.350098 16.3696 0.350098H17.4397C17.6619 0.350098 17.8421 0.51341 17.8421 0.714879V2.81806C17.8421 3.01953 17.6619 3.18284 17.4397 3.18284Z" stroke="white" stroke-width="0.7" stroke-miterlimit="10" stroke-linecap="round" stroke-linejoin="round"/>
<path d="M12.4384 7.0543L11.7208 6.40353C11.6423 6.33229 11.5149 6.33229 11.4364 6.40353L10.3262 7.41033C10.2476 7.48157 10.1203 7.48157 10.0417 7.41033L9.41098 6.83835C9.33242 6.76711 9.20511 6.76711 9.12654 6.83835L8.40892 7.48912C8.33036 7.56036 8.33036 7.67581 8.40892 7.74706L9.89948 9.09875C10.0566 9.2412 10.3113 9.2412 10.4684 9.09875L12.4384 7.31224C12.517 7.24099 12.517 7.1255 12.4384 7.0543Z" stroke="#2D2D2D" stroke-width="0.7" stroke-miterlimit="10" stroke-linecap="round" stroke-linejoin="round"/>
<path d="M17.4384 12.0543L16.7208 11.4035C16.6423 11.3323 16.5149 11.3323 16.4364 11.4035L15.3262 12.4103C15.2476 12.4816 15.1203 12.4816 15.0417 12.4103L14.411 11.8383C14.3324 11.7671 14.2051 11.7671 14.1265 11.8383L13.4089 12.4891C13.3304 12.5604 13.3304 12.6758 13.4089 12.7471L14.8995 14.0988C15.0566 14.2412 15.3113 14.2412 15.4684 14.0988L17.4384 12.3122C17.517 12.241 17.517 12.1255 17.4384 12.0543Z" stroke="#2D2D2D" stroke-width="0.7" stroke-miterlimit="10" stroke-linecap="round" stroke-linejoin="round"/>
</svg>
