<svg width="20" height="20" viewBox="0 0 20 20" fill="none" xmlns="http://www.w3.org/2000/svg">
<path d="M18.4314 20.0002H1.56863C0.703686 20.0002 0 19.2678 0 18.3675V3.26547C0 2.36522 0.703686 1.63281 1.56863 1.63281H2.7451C2.96165 1.63281 3.13725 1.81559 3.13725 2.04098V2.83783C3.13725 3.06587 3.30667 3.25759 3.51498 3.26518C3.73686 3.274 3.92157 3.08942 3.92157 2.8573V2.04098C3.92157 1.81559 4.09718 1.63281 4.31373 1.63281H7.05882C7.27541 1.63281 7.45098 1.81559 7.45098 2.04098V2.83783C7.45098 3.06587 7.62039 3.25759 7.82871 3.26518C8.04886 3.27396 8.23529 3.09098 8.23529 2.8573V2.04098C8.23529 1.81559 8.41086 1.63281 8.62745 1.63281H11.3725C11.5891 1.63281 11.7647 1.81559 11.7647 2.04098V2.83783C11.7647 3.06587 11.9341 3.25759 12.1424 3.26518C12.3626 3.27391 12.549 3.09102 12.549 2.8573V2.04098C12.549 1.81559 12.7246 1.63281 12.9412 1.63281H15.6863C15.9028 1.63281 16.0784 1.81559 16.0784 2.04098V2.83783C16.0784 3.06587 16.2478 3.25759 16.4562 3.26518C16.6763 3.27396 16.8627 3.09098 16.8627 2.8573V2.04098C16.8627 1.81559 17.0384 1.63281 17.2549 1.63281H18.4314C19.2963 1.63281 20 2.36522 20 3.26547V18.3675C20 19.2678 19.2963 20.0002 18.4314 20.0002ZM1.56863 2.44914C1.13616 2.44914 0.784314 2.81534 0.784314 3.26547V18.3675C0.784314 18.8176 1.13616 19.1838 1.56863 19.1838H18.4314C18.8638 19.1838 19.2157 18.8176 19.2157 18.3675V3.26547C19.2157 2.81534 18.8638 2.44914 18.4314 2.44914H17.6471V2.8573C17.6471 3.55147 17.096 4.10494 16.4287 4.08102C15.7925 4.05783 15.2941 3.51175 15.2941 2.83783V2.44914H13.3333V2.8573C13.3333 3.5493 12.7845 4.10506 12.115 4.08102C11.4787 4.05783 10.9804 3.51175 10.9804 2.83783V2.44914H9.01961V2.8573C9.01961 3.54649 8.47333 4.1051 7.80126 4.08102C7.16502 4.05783 6.66667 3.51175 6.66667 2.83783V2.44914H4.70588V2.8573C4.70588 3.54991 4.15651 4.10502 3.48753 4.08102C2.85129 4.05783 2.35294 3.51175 2.35294 2.83783V2.44914H1.56863Z" fill="black"/>
<path d="M19.6078 6.53117H0.392157C0.175569 6.53117 0 6.34844 0 6.12301C0 5.89758 0.175569 5.71484 0.392157 5.71484H19.6078C19.8244 5.71484 20 5.89758 20 6.12301C20 6.34844 19.8244 6.53117 19.6078 6.53117Z" fill="black"/>
<path d="M16.4706 4.08163C15.8219 4.08163 15.2941 3.53233 15.2941 2.85714V1.22449C15.2941 0.549306 15.8219 0 16.4706 0C17.1206 0 17.6471 0.547959 17.6471 1.22449V2.85714C17.6471 3.53233 17.1193 4.08163 16.4706 4.08163ZM16.4706 0.816326C16.2544 0.816326 16.0784 0.999429 16.0784 1.22449V2.85714C16.0784 3.0822 16.2544 3.26531 16.4706 3.26531C16.6868 3.26531 16.8628 3.0822 16.8628 2.85714V1.22449C16.8628 1.11559 16.8219 1.01314 16.7478 0.936C16.6737 0.858816 16.5752 0.816326 16.4706 0.816326Z" fill="black"/>
<path d="M12.1569 4.08163C11.5082 4.08163 10.9804 3.53233 10.9804 2.85714V1.22449C10.9804 0.549306 11.5082 0 12.1569 0C12.8069 0 13.3333 0.547959 13.3333 1.22449V2.85714C13.3333 3.53233 12.8056 4.08163 12.1569 4.08163ZM12.1569 0.816326C11.9406 0.816326 11.7647 0.999429 11.7647 1.22449V2.85714C11.7647 3.0822 11.9406 3.26531 12.1569 3.26531C12.3731 3.26531 12.549 3.0822 12.549 2.85714V1.22449C12.549 0.999224 12.3734 0.816326 12.1569 0.816326Z" fill="black"/>
<path d="M7.84316 4.08163C7.19445 4.08163 6.66669 3.53233 6.66669 2.85714V1.22449C6.66669 0.549306 7.19445 0 7.84316 0C8.4932 0 9.01963 0.547959 9.01963 1.22449V2.85714C9.01963 3.53233 8.49186 4.08163 7.84316 4.08163ZM7.84316 0.816326C7.62692 0.816326 7.451 0.999429 7.451 1.22449V2.85714C7.451 3.0822 7.62692 3.26531 7.84316 3.26531C8.05939 3.26531 8.23531 3.0822 8.23531 2.85714V1.22449C8.23531 0.999224 8.05967 0.816326 7.84316 0.816326Z" fill="black"/>
<path d="M3.52944 4.08163C2.88073 4.08163 2.35297 3.53233 2.35297 2.85714V1.22449C2.35297 0.549306 2.88073 0 3.52944 0C4.17948 0 4.70591 0.547959 4.70591 1.22449V2.85714C4.70591 3.53233 4.17814 4.08163 3.52944 4.08163ZM3.52944 0.816326C3.3132 0.816326 3.13728 0.999429 3.13728 1.22449V2.85714C3.13728 3.0822 3.3132 3.26531 3.52944 3.26531C3.74567 3.26531 3.92159 3.0822 3.92159 2.85714V1.22449C3.92159 0.999224 3.74595 0.816326 3.52944 0.816326Z" fill="black"/>
<path d="M4.31375 11.8355H2.74512C2.52857 11.8355 2.35297 11.6528 2.35297 11.4274V8.16207C2.35297 7.93664 2.52857 7.75391 2.74512 7.75391H4.31375C4.5303 7.75391 4.70591 7.93664 4.70591 8.16207C4.70591 8.3875 4.5303 8.57023 4.31375 8.57023H3.13728V11.0192H4.31375C4.5303 11.0192 4.70591 11.202 4.70591 11.4274C4.70591 11.6528 4.5303 11.8355 4.31375 11.8355Z" fill="black"/>
<path d="M14.1176 11.8355H12.549C12.3325 11.8355 12.1569 11.6528 12.1569 11.4274V8.16207C12.1569 7.93664 12.3325 7.75391 12.549 7.75391H14.1176C14.3342 7.75391 14.5098 7.93664 14.5098 8.16207C14.5098 8.3875 14.3342 8.57023 14.1176 8.57023H12.9412V11.0192H14.1176C14.3342 11.0192 14.5098 11.202 14.5098 11.4274C14.5098 11.6528 14.3342 11.8355 14.1176 11.8355Z" fill="black"/>
<path d="M5.88233 11.8355C5.66574 11.8355 5.49017 11.6528 5.49017 11.4274V8.16207C5.49017 7.93664 5.66574 7.75391 5.88233 7.75391C6.09892 7.75391 6.27449 7.93664 6.27449 8.16207V11.4274C6.27449 11.6528 6.09892 11.8355 5.88233 11.8355Z" fill="black"/>
<path d="M7.84315 11.8355C7.62656 11.8355 7.45099 11.6528 7.45099 11.4274V8.16207C7.45099 7.93664 7.62656 7.75391 7.84315 7.75391C8.05973 7.75391 8.2353 7.93664 8.2353 8.16207V11.4274C8.2353 11.6528 8.05973 11.8355 7.84315 11.8355Z" fill="black"/>
<path d="M7.84311 10.203H5.88233C5.66574 10.203 5.49017 10.0203 5.49017 9.79488C5.49017 9.56945 5.66574 9.38672 5.88233 9.38672H7.84311C8.0597 9.38672 8.23527 9.56945 8.23527 9.79488C8.23527 10.0203 8.0597 10.203 7.84311 10.203Z" fill="black"/>
<path d="M10.9804 11.8355H9.41175C9.19516 11.8355 9.01959 11.6528 9.01959 11.4274V8.16207C9.01959 7.93664 9.19516 7.75391 9.41175 7.75391H10.9804C11.1969 7.75391 11.3725 7.93664 11.3725 8.16207C11.3725 8.3875 11.1969 8.57023 10.9804 8.57023H9.80391V11.0192H10.9804C11.1969 11.0192 11.3725 11.202 11.3725 11.4274C11.3725 11.6528 11.1969 11.8355 10.9804 11.8355Z" fill="black"/>
<path d="M10.9804 10.203H9.41175C9.19516 10.203 9.01959 10.0203 9.01959 9.79488C9.01959 9.56945 9.19516 9.38672 9.41175 9.38672H10.9804C11.1969 9.38672 11.3725 9.56945 11.3725 9.79488C11.3725 10.0203 11.1969 10.203 10.9804 10.203Z" fill="black"/>
<path d="M15.6863 11.8355C15.4697 11.8355 15.2941 11.6528 15.2941 11.4274V8.16207C15.2941 7.93664 15.4697 7.75391 15.6863 7.75391C15.9028 7.75391 16.0784 7.93664 16.0784 8.16207V11.4274C16.0784 11.6528 15.9028 11.8355 15.6863 11.8355Z" fill="black"/>
<path d="M16.9487 11.6844L15.3801 9.64361C15.2448 9.46757 15.2722 9.21075 15.4413 9.0699C15.6105 8.92912 15.8573 8.95765 15.9925 9.13361L17.5611 11.1744C17.6964 11.3505 17.669 11.6073 17.4999 11.7481C17.3315 11.8883 17.0847 11.8612 16.9487 11.6844Z" fill="black"/>
<path d="M15.4413 10.5216C15.2722 10.3808 15.2448 10.124 15.3801 9.94792L16.9487 7.9071C17.084 7.73114 17.3308 7.70249 17.5 7.84339C17.6691 7.9842 17.6965 8.24106 17.5612 8.4171L15.9925 10.4579C15.8569 10.6344 15.6099 10.662 15.4413 10.5216Z" fill="black"/>
<path d="M2.74512 17.5504C2.52857 17.5504 2.35297 17.3676 2.35297 17.1422V13.8769C2.35297 13.6515 2.52857 13.4688 2.74512 13.4688C2.96167 13.4688 3.13728 13.6515 3.13728 13.8769V17.1422C3.13728 17.3676 2.96167 17.5504 2.74512 17.5504Z" fill="black"/>
<path d="M5.94196 17.3585L4.70588 15.3001V17.1422C4.70588 17.3676 4.53028 17.5504 4.31373 17.5504C4.09718 17.5504 3.92157 17.3676 3.92157 17.1422V13.8769C3.92157 13.6948 4.03745 13.5348 4.20561 13.4846C4.37377 13.4344 4.55353 13.5062 4.64628 13.6606L5.88235 15.719V13.8769C5.88235 13.6515 6.05792 13.4688 6.27451 13.4688C6.4911 13.4688 6.66667 13.6515 6.66667 13.8769V17.1422C6.66667 17.3243 6.55079 17.4844 6.38263 17.5345C6.21451 17.5847 6.03475 17.5131 5.94196 17.3585Z" fill="black"/>
<path d="M9.52663 17.8409L7.56584 15.8001C7.4127 15.6407 7.4127 15.3823 7.56584 15.2228L9.52663 13.182C9.63878 13.0653 9.80745 13.0304 9.954 13.0935C10.1005 13.1567 10.1961 13.3055 10.1961 13.4706V14.287H17.2549C17.4714 14.287 17.6471 14.4697 17.6471 14.6951V16.3278C17.6471 16.5532 17.4714 16.7359 17.2549 16.7359H10.1961V17.5523C10.1961 17.7174 10.1005 17.8662 9.954 17.9294C9.80741 17.9925 9.63878 17.9577 9.52663 17.8409ZM8.39776 15.5115L9.41176 16.5669V16.3278C9.41176 16.1024 9.58733 15.9197 9.80392 15.9197H16.8627V15.1033H9.80392C9.58733 15.1033 9.41176 14.9206 9.41176 14.6952V14.4561L8.39776 15.5115Z" fill="black"/>
</svg>
