<svg width="18" height="21" viewBox="0 0 18 21" fill="none" xmlns="http://www.w3.org/2000/svg">
<path d="M8.0141 10.9463H12.9688" stroke="white" stroke-width="0.7" stroke-miterlimit="10" stroke-linecap="round" stroke-linejoin="round"/>
<path d="M8.0141 12.6436H10.9227" stroke="white" stroke-width="0.7" stroke-miterlimit="10" stroke-linecap="round" stroke-linejoin="round"/>
<path d="M16.9017 14.0249V15.2576C16.9017 15.3465 16.8257 15.4186 16.732 15.4186H11.5666C11.4729 15.4186 11.3969 15.3465 11.3969 15.2576V14.0482" stroke="white" stroke-width="0.7" stroke-miterlimit="10" stroke-linecap="round" stroke-linejoin="round"/>
<path d="M15.8463 13.9477H17.1798C17.2731 13.9477 17.3495 13.8757 17.3495 13.7867V12.9377C17.3495 12.4733 16.9523 12.0967 16.4623 12.0967H11.8305C11.3409 12.0967 10.9438 12.4733 10.9438 12.9377V13.7867C10.9438 13.8757 11.0197 13.9477 11.1135 13.9477H14.3613" stroke="white" stroke-width="0.7" stroke-miterlimit="10" stroke-linecap="round" stroke-linejoin="round"/>
<path d="M15.2467 12.0075V10.5816C15.2467 10.0838 15.357 9.59163 15.5706 9.13692C15.7842 8.68221 15.8945 8.18996 15.8945 7.6922V7.46674C15.8945 6.55069 15.1115 5.80811 14.1457 5.80811C13.1799 5.80811 12.3969 6.55073 12.3969 7.46674V7.6922C12.3969 8.19 12.5073 8.68221 12.7208 9.13692C12.9344 9.59163 13.0448 10.0839 13.0448 10.5816V12.0075" stroke="white" stroke-width="0.7" stroke-miterlimit="10" stroke-linecap="round" stroke-linejoin="round"/>
<path d="M13.0141 9.57568H15.4066" stroke="white" stroke-width="0.7" stroke-miterlimit="10" stroke-linecap="round" stroke-linejoin="round"/>
<path d="M3.24844 12.1393L4.06903 12.9465L5.51903 11.5713" stroke="white" stroke-width="0.7" stroke-miterlimit="10" stroke-linecap="round" stroke-linejoin="round"/>
<path d="M4.37933 14.3161C5.67268 14.3161 6.72114 13.3217 6.72114 12.0951C6.72114 10.8684 5.67268 9.87402 4.37933 9.87402C3.08597 9.87402 2.03751 10.8684 2.03751 12.0951C2.03751 13.3217 3.08597 14.3161 4.37933 14.3161Z" stroke="white" stroke-width="0.7" stroke-miterlimit="10" stroke-linecap="round" stroke-linejoin="round"/>
<path d="M10.9478 5.74414H3.10001V7.61335H10.9478V5.74414Z" stroke="white" stroke-width="0.7" stroke-miterlimit="10" stroke-linecap="round" stroke-linejoin="round"/>
<path d="M5.8839 16.6581L5.9573 16.5982C6.35166 16.276 6.96516 16.4459 7.11472 16.9188C7.28672 17.4625 7.2053 18.0501 6.891 18.5333C6.74292 18.7609 6.44322 18.8539 6.18195 18.7533C5.89162 18.6416 5.78284 18.3051 5.95726 18.0582C6.21963 17.6867 6.61764 17.4206 7.07462 17.3109L8.03132 17.0812C8.11345 17.0615 8.19945 17.0957 8.24214 17.1651L8.51134 17.6028C8.60476 17.7547 8.83578 17.7556 8.93056 17.6045L9.41576 16.8307C9.46553 16.7513 9.58594 16.7492 9.63876 16.8268L9.93456 17.261C10.2548 17.7312 10.9261 17.8491 11.4026 17.5188L11.545 17.4201" stroke="white" stroke-width="0.7" stroke-miterlimit="10" stroke-linecap="round" stroke-linejoin="round"/>
<path d="M1.60782 3.39819V2.44057C1.60782 2.34504 1.68949 2.26758 1.79021 2.26758H3.85146" stroke="white" stroke-width="0.7" stroke-miterlimit="10" stroke-linecap="round" stroke-linejoin="round"/>
<path d="M14.9651 15.4736V18.9792C14.9651 19.0747 14.8834 19.1522 14.7827 19.1522H13.7797" stroke="white" stroke-width="0.7" stroke-miterlimit="10" stroke-linecap="round" stroke-linejoin="round"/>
<path d="M13.3032 2.26758H14.7665C14.8675 2.26758 14.9489 2.34524 14.9489 2.44061V5.94748" stroke="white" stroke-width="0.7" stroke-miterlimit="10" stroke-linecap="round" stroke-linejoin="round"/>
<path d="M11.8239 2.26758H10.1782" stroke="white" stroke-width="0.7" stroke-miterlimit="10" stroke-linecap="round" stroke-linejoin="round"/>
<path d="M7.95924 1.48783V1.24289C7.95924 0.749837 7.53781 0.350098 7.0179 0.350098C6.49804 0.350098 6.07657 0.749797 6.07657 1.24289V1.48264" stroke="white" stroke-width="0.7" stroke-miterlimit="10" stroke-linecap="round" stroke-linejoin="round"/>
<path d="M0.350006 4.82083V3.63739C0.350006 3.54202 0.431891 3.46436 0.532444 3.46436H3.85662" stroke="white" stroke-width="0.7" stroke-miterlimit="10" stroke-linecap="round" stroke-linejoin="round"/>
<path d="M13.6973 15.4736V20.1768C13.6973 20.2726 13.6158 20.3499 13.5148 20.3499H6.82657" stroke="white" stroke-width="0.7" stroke-miterlimit="10" stroke-linecap="round" stroke-linejoin="round"/>
<path d="M0.350006 6.23047V16.7833C0.350006 16.9965 0.439528 17.2014 0.598206 17.3523L3.50575 20.1131C3.66485 20.2644 3.88081 20.3493 4.1061 20.3493H5.33776" stroke="white" stroke-width="0.7" stroke-miterlimit="10" stroke-linecap="round" stroke-linejoin="round"/>
<path d="M10.1938 3.46436H13.5035C13.6042 3.46436 13.6859 3.54182 13.6859 3.63735V5.80658" stroke="white" stroke-width="0.7" stroke-miterlimit="10" stroke-linecap="round" stroke-linejoin="round"/>
<path d="M9.97125 4.13786H4.0744C3.98068 4.13786 3.90469 4.06579 3.90469 3.9769V2.15047C3.90469 1.81712 4.18964 1.54688 4.5411 1.54688H9.50455C9.85602 1.54688 10.141 1.81712 10.141 2.15047V3.97686C10.141 4.06579 10.065 4.13786 9.97125 4.13786Z" stroke="white" stroke-width="0.7" stroke-miterlimit="10" stroke-linecap="round" stroke-linejoin="round"/>
<path d="M3.75015 20.217V17.1182H0.482819" stroke="white" stroke-width="0.7" stroke-miterlimit="10" stroke-linecap="round" stroke-linejoin="round"/>
</svg>
