<svg width="24" height="24" viewBox="0 0 24 24" fill="none" xmlns="http://www.w3.org/2000/svg">
<path d="M13.2031 5.3623C13.2031 5.27781 13.1343 5.20898 13.0498 5.20898C12.9865 5.20912 12.9323 5.24778 12.9092 5.30273L12.8975 5.3623C12.8976 5.44653 12.9656 5.51446 13.0498 5.51465L13.1094 5.50293C13.1643 5.47981 13.203 5.42563 13.2031 5.3623Z" fill="white" stroke="white"/>
<path d="M9.19824 6.39355L9.33105 6.31641C9.28867 6.24331 9.19493 6.21871 9.12207 6.26074M9.19824 6.39355L9.12207 6.26074M9.19824 6.39355L9.27441 6.52637C9.21987 6.55742 9.15379 6.55124 9.10645 6.51562L9.06641 6.46973H9.06543C9.02343 6.39663 9.04906 6.30296 9.12207 6.26074M9.19824 6.39355L9.12207 6.26074M9.19824 6.39355L9.33105 6.31738C9.36241 6.37217 9.35622 6.4379 9.32031 6.48535L9.27539 6.52539L9.19824 6.39355Z" fill="white" stroke="white"/>
<path d="M6.39355 9.20215L6.46484 9.08008M6.39355 9.20215L6.26172 9.125C6.30399 9.05215 6.39749 9.02704 6.4707 9.06934M6.39355 9.20215L6.46484 9.08008M6.39355 9.20215L6.52637 9.27832M6.46484 9.08008L6.4707 9.06934M6.46484 9.08008L6.4707 9.06934M6.4707 9.06934C6.5437 9.11165 6.56857 9.20522 6.52637 9.27832M6.52637 9.27832C6.48414 9.35134 6.39049 9.37698 6.31738 9.33496V9.33398C6.24461 9.29185 6.21921 9.19897 6.26074 9.12598L6.52637 9.27832Z" fill="white" stroke="white"/>
<path d="M6.39355 16.8818L6.52637 16.8047C6.48412 16.7318 6.39063 16.7067 6.31738 16.749M6.39355 16.8818L6.31738 16.749M6.39355 16.8818L6.46973 17.0146C6.41512 17.0457 6.34906 17.0395 6.30176 17.0039L6.26172 16.958H6.26074C6.21871 16.8849 6.24435 16.7913 6.31738 16.749M6.39355 16.8818L6.31738 16.749M6.39355 16.8818L6.52637 16.8057C6.55774 16.8605 6.55153 16.9262 6.51562 16.9736L6.4707 17.0137L6.39355 16.8818Z" fill="white" stroke="white"/>
<path d="M9.19824 19.6904L9.26953 19.5684M9.19824 19.6904L9.06641 19.6133C9.1088 19.5403 9.20254 19.5156 9.27539 19.5576M9.19824 19.6904L9.26953 19.5684M9.19824 19.6904L9.33105 19.7666M9.26953 19.5684L9.27539 19.5576M9.26953 19.5684L9.27539 19.5576M9.27539 19.5576C9.34844 19.6 9.37318 19.6936 9.33105 19.7666M9.33105 19.7666C9.28875 19.8398 9.19504 19.8652 9.12207 19.8232V19.8223C9.04938 19.7802 9.02393 19.6873 9.06543 19.6143L9.33105 19.7666Z" fill="white" stroke="white"/>
<path d="M13.2031 20.7256C13.2031 20.6411 13.1343 20.5723 13.0498 20.5723C12.9865 20.5724 12.9323 20.6111 12.9092 20.666L12.8975 20.7256C12.8976 20.8098 12.9656 20.8777 13.0498 20.8779L13.1094 20.8662C13.1643 20.8431 13.203 20.7889 13.2031 20.7256Z" fill="white" stroke="white"/>
<path d="M16.8857 19.6904L17.0186 19.6133C16.9762 19.5402 16.8825 19.5155 16.8096 19.5576M16.8857 19.6904L16.8096 19.5576M16.8857 19.6904L16.9619 19.8232C16.9074 19.8543 16.8413 19.8481 16.7939 19.8125L16.7539 19.7666H16.7529C16.7109 19.6936 16.7365 19.5999 16.8096 19.5576M16.8857 19.6904L16.8096 19.5576M16.8857 19.6904L17.0186 19.6143C17.0499 19.6691 17.0437 19.7348 17.0078 19.7822L16.9629 19.8223L16.8857 19.6904Z" fill="white" stroke="white"/>
<path d="M19.6904 16.8818L19.7617 16.7598M19.6904 16.8818L19.5586 16.8047C19.6009 16.7317 19.6945 16.7068 19.7676 16.749M19.6904 16.8818L19.7617 16.7598M19.6904 16.8818L19.8232 16.958M19.7617 16.7598L19.7676 16.749M19.7617 16.7598L19.7676 16.749M19.7676 16.749C19.8406 16.7913 19.8654 16.8849 19.8232 16.958M19.8232 16.958C19.7811 17.0309 19.6875 17.0567 19.6143 17.0146V17.0137C19.5415 16.9715 19.5161 16.8787 19.5576 16.8057L19.8232 16.958Z" fill="white" stroke="white"/>
<path d="M19.6904 9.20215L19.8232 9.125C19.7809 9.05199 19.6874 9.02713 19.6143 9.06934M19.6904 9.20215L19.6143 9.06934M19.6904 9.20215L19.7666 9.33496C19.7119 9.36605 19.6459 9.35975 19.5986 9.32422L19.5586 9.27832H19.5576C19.5156 9.20521 19.5412 9.11156 19.6143 9.06934M19.6904 9.20215L19.6143 9.06934M19.6904 9.20215L19.8232 9.12598C19.865 9.19897 19.8403 9.29174 19.7676 9.33398L19.6904 9.20215Z" fill="white" stroke="white"/>
<path d="M16.8857 6.39355L16.957 6.27148M16.8857 6.39355L16.7529 6.31738M16.8857 6.39355L16.957 6.27148M16.8857 6.39355L17.0186 6.46973M16.957 6.27148L16.9629 6.26074M16.957 6.27148L16.9629 6.26074M16.9629 6.26074C16.8899 6.2186 16.7952 6.2441 16.7529 6.31738M16.9629 6.26074C17.0359 6.30304 17.0608 6.39657 17.0186 6.46973M16.7529 6.31738L17.0186 6.46973M16.7529 6.31738C16.7114 6.39027 16.7367 6.48322 16.8096 6.52539V6.52637C16.8825 6.56836 16.9762 6.54288 17.0186 6.46973" fill="white" stroke="white"/>
<path d="M13.0391 0.501871V2.58398" stroke="white" stroke-miterlimit="10" stroke-linecap="round" stroke-linejoin="round"/>
<path d="M14.4402 2.67383V0.499824H11.6641V2.67383" stroke="white" stroke-miterlimit="10" stroke-linecap="round" stroke-linejoin="round"/>
<path d="M22.1174 13.0387C22.1174 18.0472 18.0564 22.1074 13.047 22.1074C8.03751 22.1074 3.97656 18.0472 3.97656 13.0387C3.97656 8.03012 8.03751 3.9699 13.047 3.9699C18.0564 3.9699 22.1174 8.03012 22.1174 13.0387Z" stroke="white" stroke-miterlimit="10" stroke-linecap="round" stroke-linejoin="round"/>
<path d="M2.67784 14.4293C3.35697 19.5482 7.73923 23.498 13.0447 23.498C18.8209 23.498 23.5034 18.8163 23.5034 13.0412C23.5034 7.26608 18.8209 2.58438 13.0447 2.58438C7.26849 2.58438 2.58594 7.26608 2.58594 13.0412" stroke="white" stroke-miterlimit="10" stroke-linecap="round" stroke-linejoin="round"/>
<path d="M14.2422 13.7363H20.028C20.4114 13.7363 20.7221 13.4256 20.7221 13.0423C20.7221 12.659 20.4114 12.3483 20.028 12.3483H14.2422" stroke="white" stroke-miterlimit="10" stroke-linecap="round" stroke-linejoin="round"/>
<path d="M13.7318 11.8379V7.44125C13.7318 7.05791 13.4211 6.74722 13.0378 6.74722C12.6545 6.74722 12.3438 7.05791 12.3438 7.44125V11.8379" stroke="white" stroke-miterlimit="10" stroke-linecap="round" stroke-linejoin="round"/>
<path d="M14.4402 13.0436C14.4402 13.8102 13.8187 14.4316 13.0521 14.4316C12.2856 14.4316 11.6641 13.8102 11.6641 13.0436C11.6641 12.277 12.2856 11.6555 13.0521 11.6555C13.8187 11.6555 14.4402 12.277 14.4402 13.0436Z" stroke="white" stroke-miterlimit="10" stroke-linecap="round" stroke-linejoin="round"/>
<path d="M11.6453 13.0449H5.35156" stroke="white" stroke-miterlimit="10" stroke-linecap="round" stroke-linejoin="round"/>
<path d="M3.9702 13.0449H0.5" stroke="white" stroke-miterlimit="10" stroke-linecap="round" stroke-linejoin="round"/>
<path d="M0.5 15.8184H2.95538" stroke="white" stroke-miterlimit="10" stroke-linecap="round" stroke-linejoin="round"/>
<path d="M2.95538 10.2637H0.5" stroke="white" stroke-miterlimit="10" stroke-linecap="round" stroke-linejoin="round"/>
</svg>
