<svg width="21" height="18" viewBox="0 0 21 18" fill="none" xmlns="http://www.w3.org/2000/svg">
<path d="M10.0065 9.85107H11.8209V7.21884H8.90469" stroke="white" stroke-width="0.7" stroke-miterlimit="10" stroke-linecap="round" stroke-linejoin="round"/>
<path d="M14.7728 7.21347H11.8266V9.8457H14.7728V7.21347Z" stroke="white" stroke-width="0.7" stroke-miterlimit="10" stroke-linecap="round" stroke-linejoin="round"/>
<path d="M17.188 7.22177H14.7719V9.854H17.7181V7.69971C17.7181 7.43575 17.4808 7.22177 17.188 7.22177Z" stroke="white" stroke-width="0.7" stroke-miterlimit="10" stroke-linecap="round" stroke-linejoin="round"/>
<path d="M17.7181 9.84925V12.0035C17.7181 12.2675 17.4808 12.4814 17.188 12.4814H14.7719" stroke="white" stroke-width="0.7" stroke-miterlimit="10" stroke-linecap="round" stroke-linejoin="round"/>
<path d="M8.87344 12.4814H11.8197V9.84925" stroke="white" stroke-width="0.7" stroke-miterlimit="10" stroke-linecap="round" stroke-linejoin="round"/>
<path d="M11.8266 12.4814H14.7728V9.84925" stroke="white" stroke-width="0.7" stroke-miterlimit="10" stroke-linecap="round" stroke-linejoin="round"/>
<path d="M2.975 12.484V14.6383C2.975 14.9022 3.2123 15.1162 3.50514 15.1162H5.92125V13.507" stroke="white" stroke-width="0.7" stroke-miterlimit="10" stroke-linecap="round" stroke-linejoin="round"/>
<path d="M5.93594 15.1162H8.88219V12.3304" stroke="white" stroke-width="0.7" stroke-miterlimit="10" stroke-linecap="round" stroke-linejoin="round"/>
<path d="M8.88125 15.1162H11.8275V12.484H8.88125V15.1162Z" stroke="white" stroke-width="0.7" stroke-miterlimit="10" stroke-linecap="round" stroke-linejoin="round"/>
<path d="M14.7728 12.484V14.6383C14.7728 14.9022 14.5355 15.1162 14.2427 15.1162H11.8266" stroke="white" stroke-width="0.7" stroke-miterlimit="10" stroke-linecap="round" stroke-linejoin="round"/>
<path d="M3.40028 3.271C2.91082 3.271 2.51406 2.9133 2.51406 2.47203V1.14917C2.51406 0.707898 2.91082 0.350203 3.40028 0.350203C3.8897 0.350203 4.28645 0.707898 4.28645 1.14917V2.47203C4.28645 2.9133 3.8897 3.271 3.40028 3.271Z" stroke="white" stroke-width="0.7" stroke-miterlimit="10" stroke-linecap="round" stroke-linejoin="round"/>
<path d="M6.8768 3.271C6.38738 3.271 5.99062 2.9133 5.99062 2.47203V1.14917C5.99062 0.707898 6.38738 0.350203 6.8768 0.350203C7.36626 0.350203 7.76302 0.707898 7.76302 1.14917V2.47203C7.76302 2.9133 7.36626 3.271 6.8768 3.271Z" stroke="white" stroke-width="0.7" stroke-miterlimit="10" stroke-linecap="round" stroke-linejoin="round"/>
<path d="M10.3534 3.271C9.8639 3.271 9.46719 2.9133 9.46719 2.47203V1.14917C9.46719 0.707898 9.8639 0.350203 10.3534 0.350203C10.8428 0.350203 11.2395 0.707898 11.2395 1.14917V2.47203C11.2395 2.9133 10.8428 3.271 10.3534 3.271Z" stroke="white" stroke-width="0.7" stroke-miterlimit="10" stroke-linecap="round" stroke-linejoin="round"/>
<path d="M13.8143 3.271C13.3249 3.271 12.9281 2.9133 12.9281 2.47203V1.14917C12.9281 0.707898 13.3249 0.350203 13.8143 0.350203C14.3038 0.350203 14.7005 0.707898 14.7005 1.14917V2.47203C14.7005 2.9133 14.3038 3.271 13.8143 3.271Z" stroke="white" stroke-width="0.7" stroke-miterlimit="10" stroke-linecap="round" stroke-linejoin="round"/>
<path d="M17.2909 3.271C16.8014 3.271 16.4047 2.9133 16.4047 2.47203V1.14917C16.4047 0.707898 16.8014 0.350203 17.2909 0.350203C17.7803 0.350203 18.1771 0.707898 18.1771 1.14917V2.47203C18.1771 2.9133 17.7803 3.271 17.2909 3.271Z" stroke="white" stroke-width="0.7" stroke-miterlimit="10" stroke-linecap="round" stroke-linejoin="round"/>
<path d="M20.3417 6.58252V2.83795C20.3417 2.26867 19.8298 1.80716 19.1983 1.80716H18.1703" stroke="white" stroke-width="0.7" stroke-miterlimit="10" stroke-linecap="round" stroke-linejoin="round"/>
<path d="M2.52136 1.80788H1.4934C0.861909 1.80788 0.349998 2.26939 0.349998 2.83867V16.3183C0.349998 16.8876 0.861909 17.3491 1.4934 17.3491H16.3818C16.6207 17.3491 16.8497 17.2636 17.0185 17.1114L20.0831 14.3485C20.252 14.1963 20.3468 13.9898 20.3468 13.7746V7.86134" stroke="white" stroke-width="0.7" stroke-miterlimit="10" stroke-linecap="round" stroke-linejoin="round"/>
<path d="M5.9855 1.80908H4.2875" stroke="white" stroke-width="0.7" stroke-miterlimit="10" stroke-linecap="round" stroke-linejoin="round"/>
<path d="M9.46206 1.80908H7.76406" stroke="white" stroke-width="0.7" stroke-miterlimit="10" stroke-linecap="round" stroke-linejoin="round"/>
<path d="M12.9386 1.80908H11.2406" stroke="white" stroke-width="0.7" stroke-miterlimit="10" stroke-linecap="round" stroke-linejoin="round"/>
<path d="M16.3996 1.80908H14.7016" stroke="white" stroke-width="0.7" stroke-miterlimit="10" stroke-linecap="round" stroke-linejoin="round"/>
<path d="M4.11562 4.8457H20.3484" stroke="white" stroke-width="0.7" stroke-miterlimit="10" stroke-linecap="round" stroke-linejoin="round"/>
<path d="M0.349998 4.8457H2.70113" stroke="white" stroke-width="0.7" stroke-miterlimit="10" stroke-linecap="round" stroke-linejoin="round"/>
<path d="M20.2663 14.1124H17.8996C17.2681 14.1124 16.7562 14.5739 16.7562 15.1432V17.2769" stroke="white" stroke-width="0.7" stroke-miterlimit="10" stroke-linecap="round" stroke-linejoin="round"/>
<path d="M9.55063 9.7593C9.55063 11.8285 7.90725 13.5059 5.87999 13.5059C3.85275 13.5059 2.20937 11.8285 2.20937 9.7593C2.20937 7.69014 3.85275 6.01273 5.87999 6.01273C7.90725 6.01273 9.55063 7.69014 9.55063 9.7593Z" stroke="white" stroke-width="0.7" stroke-miterlimit="10" stroke-linecap="round" stroke-linejoin="round"/>
<path d="M7.14812 8.9909C7.14812 9.7874 6.51826 10.4331 5.74125 10.4331C4.96426 10.4331 4.33437 9.7874 4.33437 8.9909C4.33437 8.1944 4.96426 7.5487 5.74125 7.5487C6.51826 7.5487 7.14812 8.1944 7.14812 8.9909Z" stroke="white" stroke-width="0.7" stroke-miterlimit="10" stroke-linecap="round" stroke-linejoin="round"/>
<path d="M8.33482 12.3945C8.3161 11.31 7.45334 10.4365 6.39108 10.4365H5.08279C4.0205 10.4365 3.15774 11.31 3.13906 12.3945" stroke="white" stroke-width="0.7" stroke-miterlimit="10" stroke-linecap="round" stroke-linejoin="round"/>
</svg>
