<svg width="20" height="20" viewBox="0 0 20 20" fill="none" xmlns="http://www.w3.org/2000/svg">
<path d="M10 3.99951H13.3334V4.66618H10V3.99951Z" fill="white"/>
<path d="M10 5.3335H13.3334V6.00016H10V5.3335Z" fill="white"/>
<path d="M10 6.66748H13.3334V7.33415H10V6.66748Z" fill="white"/>
<path d="M10 7.99902H13.3334V8.66569H10V7.99902Z" fill="white"/>
<path d="M6.29262 4.60665C6.53676 4.68753 6.80048 4.68753 7.04462 4.60665C7.10375 4.81529 7.2291 4.99906 7.40177 5.13025C7.57445 5.26144 7.7851 5.33295 8.00195 5.33398H8.33529C8.42369 5.33398 8.50848 5.3691 8.57099 5.43161C8.6335 5.49413 8.66862 5.57891 8.66862 5.66732V6.66732H9.33529V5.66732C9.33529 5.4021 9.22993 5.14775 9.04239 4.96021C8.85486 4.77267 8.6005 4.66732 8.33529 4.66732H8.00195C7.91355 4.66732 7.82876 4.6322 7.76625 4.56969C7.70374 4.50717 7.66862 4.42239 7.66862 4.33398V4.20665C7.88223 3.96602 8.00074 3.65575 8.00195 3.33398V2.66732C8.00195 2.3137 7.86148 1.97456 7.61143 1.72451C7.36138 1.47446 7.02224 1.33398 6.66862 1.33398C6.315 1.33398 5.97586 1.47446 5.72581 1.72451C5.47576 1.97456 5.33529 2.3137 5.33529 2.66732V3.33398C5.3365 3.65575 5.45501 3.96602 5.66862 4.20665V4.33398C5.66862 4.42239 5.6335 4.50717 5.57099 4.56969C5.50848 4.6322 5.42369 4.66732 5.33529 4.66732H5.00195C4.73674 4.66732 4.48238 4.77267 4.29485 4.96021C4.10731 5.14775 4.00195 5.4021 4.00195 5.66732V6.66732H4.66862V5.66732C4.66862 5.57891 4.70374 5.49413 4.76625 5.43161C4.82876 5.3691 4.91355 5.33398 5.00195 5.33398H5.33529C5.55214 5.33295 5.76279 5.26144 5.93546 5.13025C6.10814 4.99906 6.23349 4.81529 6.29262 4.60665ZM6.00195 2.66732C6.00195 2.49051 6.07219 2.32094 6.19722 2.19591C6.32224 2.07089 6.49181 2.00065 6.66862 2.00065C6.84543 2.00065 7.015 2.07089 7.14002 2.19591C7.26505 2.32094 7.33529 2.49051 7.33529 2.66732V3.33398C7.33529 3.5108 7.26505 3.68036 7.14002 3.80539C7.015 3.93041 6.84543 4.00065 6.66862 4.00065C6.49181 4.00065 6.32224 3.93041 6.19722 3.80539C6.07219 3.68036 6.00195 3.5108 6.00195 3.33398V2.66732Z" fill="white"/>
<path d="M10.3334 3.33398H13C13.0884 3.33398 13.1732 3.29887 13.2357 3.23635C13.2982 3.17384 13.3334 3.08906 13.3334 3.00065V1.66732C13.3334 1.57891 13.2982 1.49413 13.2357 1.43162C13.1732 1.3691 13.0884 1.33398 13 1.33398H10.3334C10.245 1.33398 10.1602 1.3691 10.0977 1.43162C10.0351 1.49413 10 1.57891 10 1.66732V3.00065C10 3.08906 10.0351 3.17384 10.0977 3.23635C10.1602 3.29887 10.245 3.33398 10.3334 3.33398ZM10.6667 2.00065H12.6667V2.66732H10.6667V2.00065Z" fill="white"/>
<path d="M20 8.66667C19.9995 8.1364 19.7886 7.628 19.4136 7.25304C19.0387 6.87808 18.5303 6.6672 18 6.66667H16V1.66667C16 1.57826 15.9649 1.49348 15.9024 1.43096C15.8399 1.36845 15.7551 1.33333 15.6667 1.33333H14.6667V0.333333C14.6667 0.244928 14.6315 0.160143 14.569 0.0976311C14.5065 0.0351189 14.4217 0 14.3333 0H3C2.91159 0 2.82681 0.0351189 2.7643 0.0976311C2.70179 0.160143 2.66667 0.244928 2.66667 0.333333V7.66667H1.66667C1.2248 7.6672 0.801186 7.84296 0.48874 8.15541C0.176294 8.46785 0.000529286 8.89147 0 9.33333V18.3333C0.000529286 18.7752 0.176294 19.1988 0.48874 19.5113C0.801186 19.8237 1.2248 19.9995 1.66667 20H15.6667C16.0954 19.9985 16.5071 19.8319 16.8161 19.5347C17.1251 19.2375 17.3077 18.8327 17.326 18.4043L19.988 8.75533C19.996 8.72645 20 8.69663 20 8.66667ZM15.3333 2V9.33333H14.6667V2H15.3333ZM3.33333 0.666667H14V9.33333H7.47133L5.90233 7.76433C5.83984 7.70182 5.75506 7.66669 5.66667 7.66667H3.33333V0.666667ZM16.6667 18.3333C16.6667 18.5986 16.5613 18.8529 16.3738 19.0404C16.1862 19.228 15.9319 19.3333 15.6667 19.3333H1.66667C1.40145 19.3333 1.1471 19.228 0.95956 19.0404C0.772024 18.8529 0.666667 18.5986 0.666667 18.3333V9.33333C0.666667 9.06812 0.772024 8.81376 0.95956 8.62623C1.1471 8.43869 1.40145 8.33333 1.66667 8.33333H5.52867L7.09767 9.90233C7.16016 9.96485 7.24494 9.99998 7.33333 10H15.6667C15.9319 10 16.1862 10.1054 16.3738 10.2929C16.5613 10.4804 16.6667 10.7348 16.6667 11V18.3333ZM17.3333 15.8717V11C17.3328 10.6159 17.2 10.2438 16.9571 9.94625C16.7142 9.64873 16.3762 9.44403 16 9.36667V7.33333H18C18.3464 7.33316 18.6792 7.46776 18.928 7.70865C19.1769 7.94955 19.3223 8.27783 19.3333 8.624L17.3333 15.8717Z" fill="white"/>
<path d="M12 13.0005H10.3333V11.3338C10.3333 11.2454 10.2982 11.1606 10.2357 11.0981C10.1732 11.0356 10.0884 11.0005 10 11.0005H7.33333C7.24493 11.0005 7.16014 11.0356 7.09763 11.0981C7.03512 11.1606 7 11.2454 7 11.3338V13.0005H5.33333C5.24493 13.0005 5.16014 13.0356 5.09763 13.0981C5.03512 13.1606 5 13.2454 5 13.3338V16.0005C5 16.0889 5.03512 16.1737 5.09763 16.2362C5.16014 16.2987 5.24493 16.3338 5.33333 16.3338H7V18.0005C7 18.0889 7.03512 18.1737 7.09763 18.2362C7.16014 18.2987 7.24493 18.3338 7.33333 18.3338H10C10.0884 18.3338 10.1732 18.2987 10.2357 18.2362C10.2982 18.1737 10.3333 18.0889 10.3333 18.0005V16.3338H12C12.0884 16.3338 12.1732 16.2987 12.2357 16.2362C12.2982 16.1737 12.3333 16.0889 12.3333 16.0005V13.3338C12.3333 13.2454 12.2982 13.1606 12.2357 13.0981C12.1732 13.0356 12.0884 13.0005 12 13.0005ZM11.6667 15.6672H10C9.91159 15.6672 9.82681 15.7023 9.7643 15.7648C9.70179 15.8273 9.66667 15.9121 9.66667 16.0005V17.6672H7.66667V16.0005C7.66667 15.9121 7.63155 15.8273 7.56904 15.7648C7.50652 15.7023 7.42174 15.6672 7.33333 15.6672H5.66667V13.6672H7.33333C7.42174 13.6672 7.50652 13.632 7.56904 13.5695C7.63155 13.507 7.66667 13.4222 7.66667 13.3338V11.6672H9.66667V13.3338C9.66667 13.4222 9.70179 13.507 9.7643 13.5695C9.82681 13.632 9.91159 13.6672 10 13.6672H11.6667V15.6672Z" fill="white"/>
</svg>
