<svg width="22" height="19" viewBox="0 0 22 19" fill="none" xmlns="http://www.w3.org/2000/svg">
<path d="M21.0004 18V6.49707H0.699615V18H21.0004Z" stroke="white" stroke-width="0.7"/>
<path d="M21.0004 5.80078V2.27832H0.699615V5.80078H21.0004Z" stroke="white" stroke-width="0.7"/>
<path d="M20.9936 18V6.49805H20.8285V18H20.9936Z" stroke="white" stroke-width="0.7"/>
<path d="M20.9936 5.80078V2.27832H20.8285V5.80078H20.9936Z" stroke="white" stroke-width="0.7"/>
<path d="M12.9393 1.9281H21.0265C21.2052 1.9281 21.35 2.07295 21.35 2.25159V6.15039H0.350006V2.25159C0.350006 2.07295 0.494845 1.9281 0.673466 1.9281H13.2366" stroke="white" stroke-width="0.7" stroke-miterlimit="10" stroke-linecap="round" stroke-linejoin="round"/>
<path d="M3.47309 18.3496H0.673466C0.494803 18.3496 0.350006 18.2048 0.350006 18.0261V6.14753H21.35V18.0261C21.35 18.2048 21.2051 18.3496 21.0265 18.3496H3.13653" stroke="white" stroke-width="0.7" stroke-miterlimit="10" stroke-linecap="round" stroke-linejoin="round"/>
<path d="M4.83633 3.01465C5.02834 3.01465 5.18385 2.85874 5.18399 2.66699V1.04785C5.18399 0.855956 5.0284 0.700195 4.83633 0.700195C4.64446 0.700418 4.48868 0.856093 4.48868 1.04785V2.66699C4.48882 2.8586 4.64452 3.01443 4.83633 3.01465Z" stroke="white" stroke-width="0.7"/>
<path d="M16.8598 3.01465C17.0518 3.01465 17.2073 2.85874 17.2074 2.66699V1.04785C17.2074 0.855956 17.0518 0.700195 16.8598 0.700195C16.6679 0.700418 16.5121 0.856093 16.5121 1.04785V2.66699C16.5123 2.8586 16.668 3.01443 16.8598 3.01465Z" stroke="white" stroke-width="0.7"/>
<mask id="path-9-inside-1_1_1069" fill="white">
<path d="M5.54483 1.04733V2.66639C5.54483 3.05184 5.23235 3.36426 4.84724 3.36426C4.72014 3.36426 4.60106 3.33048 4.49844 3.27096C4.70705 3.15021 4.84724 2.92477 4.84724 2.66639V1.04733C4.84724 0.85482 4.76912 0.68046 4.64286 0.554228C4.59979 0.511165 4.55123 0.474014 4.49844 0.443194C4.60106 0.383667 4.72014 0.349893 4.84724 0.349893C5.0398 0.349893 5.21419 0.427996 5.34045 0.554228C5.46671 0.68046 5.54483 0.85482 5.54483 1.04733Z"/>
</mask>
<path d="M4.49844 3.27096L4.14719 3.87645L3.10228 3.27028L4.14778 2.66512L4.49844 3.27096ZM4.49844 0.443194L4.14549 1.0477L3.10682 0.441244L4.14719 -0.162296L4.49844 0.443194ZM5.54483 1.04733H6.24483V2.66639H5.54483H4.84483V1.04733H5.54483ZM5.54483 2.66639H6.24483C6.24483 3.43831 5.61908 4.06426 4.84724 4.06426V3.36426V2.66426C4.84809 2.66426 4.84719 2.66422 4.84593 2.66476C4.84513 2.6651 4.84511 2.66527 4.84543 2.66494C4.84575 2.66462 4.8456 2.66463 4.84528 2.66537C4.84477 2.66659 4.84483 2.66739 4.84483 2.66639H5.54483ZM4.84724 3.36426V4.06426C4.59449 4.06426 4.35452 3.99673 4.14719 3.87645L4.49844 3.27096L4.8497 2.66547C4.84899 2.66505 4.84808 2.66466 4.84713 2.6644C4.84609 2.66412 4.84594 2.66426 4.84724 2.66426V3.36426ZM4.49844 3.27096L4.14778 2.66512C4.14777 2.66513 4.14801 2.66487 4.14795 2.66497C4.14781 2.66521 4.14756 2.66572 4.14736 2.66643C4.14714 2.66725 4.14724 2.66742 4.14724 2.66639H4.84724H5.54724C5.54724 3.18457 5.26513 3.63599 4.84911 3.87679L4.49844 3.27096ZM4.84724 2.66639H4.14724V1.04733H4.84724H5.54724V2.66639H4.84724ZM4.84724 1.04733H4.14724C4.14724 1.04654 4.14722 1.04748 4.14776 1.04876C4.1481 1.04957 4.14827 1.04959 4.14794 1.04926L4.64286 0.554228L5.13778 0.0591993C5.38985 0.311213 5.54724 0.661507 5.54724 1.04733H4.84724ZM4.64286 0.554228L4.14794 1.04926C4.14864 1.04996 4.14812 1.04923 4.14549 1.0477L4.49844 0.443194L4.8514 -0.161309C4.95434 -0.101206 5.05093 -0.0276301 5.13778 0.0591993L4.64286 0.554228ZM4.49844 0.443194L4.14719 -0.162296C4.35452 -0.282576 4.59449 -0.350107 4.84724 -0.350107V0.349893V1.04989C4.84594 1.04989 4.84609 1.05003 4.84713 1.04975C4.84808 1.04949 4.84899 1.0491 4.8497 1.04868L4.49844 0.443194ZM4.84724 0.349893V-0.350107C5.23301 -0.350107 5.58331 -0.192811 5.83537 0.0591993L5.34045 0.554228L4.84553 1.04926C4.8452 1.04892 4.8452 1.04908 4.84597 1.0494C4.84721 1.04993 4.84809 1.04989 4.84724 1.04989V0.349893ZM5.34045 0.554228L5.83537 0.0591993C6.08744 0.311213 6.24483 0.661507 6.24483 1.04733H5.54483H4.84483C4.84483 1.04654 4.84481 1.04748 4.84535 1.04876C4.84569 1.04957 4.84587 1.04959 4.84553 1.04926L5.34045 0.554228Z" fill="white" mask="url(#path-9-inside-1_1_1069)"/>
<mask id="path-11-inside-2_1_1069" fill="white">
<path d="M17.5605 1.04733V2.66639C17.5605 3.05184 17.2484 3.36426 16.8629 3.36426C16.7358 3.36426 16.6167 3.33006 16.5141 3.27053C16.7227 3.15021 16.8629 2.92477 16.8629 2.66639V1.04733C16.8629 0.85482 16.7847 0.68046 16.6585 0.554228C16.6154 0.511165 16.5669 0.474014 16.5141 0.443617C16.6167 0.384089 16.7358 0.349893 16.8629 0.349893C17.0554 0.349893 17.2302 0.427996 17.3561 0.554228C17.4823 0.68046 17.5605 0.85482 17.5605 1.04733Z"/>
</mask>
<path d="M16.5141 3.27053L16.1628 3.87602L15.1161 3.26879L16.1643 2.66417L16.5141 3.27053ZM16.5141 0.443617L16.1647 1.05022L15.1152 0.445843L16.1628 -0.161874L16.5141 0.443617ZM17.3561 0.554228L16.8612 1.04926L16.8603 1.04843L17.3561 0.554228ZM17.5605 1.04733H18.2605V2.66639H17.5605H16.8605V1.04733H17.5605ZM17.5605 2.66639H18.2605C18.2605 3.43804 17.6354 4.06426 16.8629 4.06426V3.36426V2.66426C16.8639 2.66426 16.8631 2.66418 16.8618 2.66473C16.8609 2.66509 16.8609 2.6653 16.8611 2.66505C16.8614 2.66479 16.8612 2.66485 16.8609 2.66559C16.8604 2.6668 16.8605 2.66753 16.8605 2.66639H17.5605ZM16.8629 3.36426V4.06426C16.6085 4.06426 16.3687 3.99548 16.1628 3.87602L16.5141 3.27053L16.8653 2.66504C16.8653 2.66501 16.8648 2.66474 16.8639 2.6645C16.8629 2.66423 16.8624 2.66426 16.8629 2.66426V3.36426ZM16.5141 3.27053L16.1643 2.66417C16.1638 2.66446 16.1638 2.66452 16.1637 2.66478C16.1635 2.6651 16.1632 2.66567 16.163 2.6664C16.1628 2.66725 16.1629 2.66742 16.1629 2.66639H16.8629H17.5629C17.5629 3.18438 17.2809 3.63635 16.8638 3.8769L16.5141 3.27053ZM16.8629 2.66639H16.1629V1.04733H16.8629H17.5629V2.66639H16.8629ZM16.8629 1.04733H16.1629C16.1629 1.04654 16.1628 1.04748 16.1634 1.04876C16.1637 1.04957 16.1639 1.04959 16.1636 1.04926L16.6585 0.554228L17.1534 0.0591993C17.4055 0.311213 17.5629 0.661507 17.5629 1.04733H16.8629ZM16.6585 0.554228L16.1636 1.04926C16.1642 1.04989 16.1647 1.05017 16.1647 1.05022L16.5141 0.443617L16.8634 -0.162988C16.9691 -0.102143 17.0666 -0.0275576 17.1534 0.0591993L16.6585 0.554228ZM16.5141 0.443617L16.1628 -0.161874C16.3687 -0.281329 16.6085 -0.350107 16.8629 -0.350107V0.349893V1.04989C16.8624 1.04989 16.8629 1.04993 16.8639 1.04965C16.8648 1.04941 16.8653 1.04914 16.8653 1.04911L16.5141 0.443617ZM16.8629 0.349893V-0.350107C17.248 -0.350107 17.5993 -0.193253 17.8518 0.060029L17.3561 0.554228L16.8603 1.04843C16.8607 1.04884 16.8612 1.04916 16.8619 1.04947C16.8631 1.04996 16.8638 1.04989 16.8629 1.04989V0.349893ZM17.3561 0.554228L17.851 0.0591993C18.1031 0.311213 18.2605 0.661507 18.2605 1.04733H17.5605H16.8605C16.8605 1.04654 16.8604 1.04748 16.861 1.04876C16.8613 1.04957 16.8615 1.04959 16.8612 1.04926L17.3561 0.554228Z" fill="white" mask="url(#path-11-inside-2_1_1069)"/>
<path d="M4.83675 3.36426C4.45142 3.36426 4.13907 3.05197 4.13907 2.66673V1.04763C4.13907 0.66239 4.45142 0.350061 4.83675 0.350061C5.22207 0.350061 5.53442 0.66239 5.53442 1.04763V2.66673C5.53442 3.05197 5.22207 3.36426 4.83675 3.36426Z" stroke="white" stroke-width="0.7" stroke-miterlimit="10" stroke-linecap="round" stroke-linejoin="round"/>
<path d="M16.8602 3.36426C16.4749 3.36426 16.1625 3.05197 16.1625 2.66673V1.04763C16.1625 0.66239 16.4749 0.350061 16.8602 0.350061C17.2455 0.350061 17.5579 0.66239 17.5579 1.04763V2.66673C17.5579 3.05197 17.2455 3.36426 16.8602 3.36426Z" stroke="white" stroke-width="0.7" stroke-miterlimit="10" stroke-linecap="round" stroke-linejoin="round"/>
<path d="M15.4125 13.4717L16.3323 11.0571C16.3512 11.0111 16.4162 11.011 16.4351 11.0569L17.3466 13.4717" stroke="white" stroke-width="0.7" stroke-miterlimit="10" stroke-linecap="round" stroke-linejoin="round"/>
<path d="M15.6859 12.8691H17.0509" stroke="white" stroke-width="0.7" stroke-miterlimit="10" stroke-linecap="round" stroke-linejoin="round"/>
<path d="M8.85001 11.0226V13.4696C8.87707 13.4743 9.70781 13.4696 9.70781 13.4696" stroke="white" stroke-width="0.7" stroke-miterlimit="10" stroke-linecap="round" stroke-linejoin="round"/>
<path d="M11.0766 11.0226V13.4717" stroke="white" stroke-width="0.7" stroke-miterlimit="10" stroke-linecap="round" stroke-linejoin="round"/>
<path d="M1.95938 11.0226V13.4717" stroke="white" stroke-width="0.7" stroke-miterlimit="10" stroke-linecap="round" stroke-linejoin="round"/>
<path d="M3.64688 11.0226V13.4717" stroke="white" stroke-width="0.7" stroke-miterlimit="10" stroke-linecap="round" stroke-linejoin="round"/>
<path d="M1.95938 12.2061H3.65459" stroke="white" stroke-width="0.7" stroke-miterlimit="10" stroke-linecap="round" stroke-linejoin="round"/>
<path d="M12.6391 11.0961V13.4316" stroke="white" stroke-width="0.7" stroke-miterlimit="10" stroke-linecap="round" stroke-linejoin="round"/>
<path d="M14.2723 12.2834C14.2723 12.9382 13.9088 13.4564 13.332 13.4664C13.1401 13.4698 12.6439 13.4717 12.6439 13.4717C12.6439 13.4717 12.6408 12.6108 12.6408 12.2808C12.6408 12.0096 12.6391 11.095 12.6391 11.095H13.3123C13.9449 11.095 14.2723 11.6285 14.2723 12.2834Z" stroke="white" stroke-width="0.7" stroke-miterlimit="10" stroke-linecap="round" stroke-linejoin="round"/>
<path d="M18.1859 11.0212L18.9684 12.2192L19.7445 11.0274" stroke="white" stroke-width="0.7" stroke-miterlimit="10" stroke-linecap="round" stroke-linejoin="round"/>
<path d="M18.9672 13.4717L18.9697 12.2206" stroke="white" stroke-width="0.7" stroke-miterlimit="10" stroke-linecap="round" stroke-linejoin="round"/>
<path d="M7.47933 12.2471C7.47933 12.9234 6.93097 13.4717 6.25449 13.4717C5.57806 13.4717 5.02969 12.9234 5.02969 12.2471C5.02969 11.5708 5.57806 11.0226 6.25449 11.0226C6.93097 11.0226 7.47933 11.5708 7.47933 12.2471Z" stroke="white" stroke-width="0.7" stroke-miterlimit="10" stroke-linecap="round" stroke-linejoin="round"/>
</svg>
