<svg width="17" height="17" viewBox="0 0 17 17" fill="none" xmlns="http://www.w3.org/2000/svg">
<path d="M6.89996 2.6333H2.6333V4.76665H6.89996V2.6333Z" stroke="black" stroke-miterlimit="10" stroke-linecap="round" stroke-linejoin="round"/>
<path d="M3.70001 9.10055V4.76666H6.90001V2.63335H3.70001V0.5H10.1V3.70001H13.3V9.10055" stroke="black" stroke-miterlimit="10" stroke-linecap="round" stroke-linejoin="round"/>
<path d="M9.5667 6.3667H7.43339V11.1667H5.30005L8.50005 14.3667L11.7 11.1667H9.5667V6.3667Z" stroke="black" stroke-miterlimit="10" stroke-linecap="round" stroke-linejoin="round"/>
<path d="M9.56666 7.05472C10.644 7.37578 11.5187 8.17071 11.948 9.1974C12.1987 9.09154 12.476 9.03341 12.7667 9.03341C13.9453 9.03341 14.9 9.98917 14.9 11.1668C14.9 11.5614 14.7933 11.931 14.604 12.2473C15.6707 12.3643 16.5 13.2691 16.5 14.3667C16.5 15.5441 15.5453 16.5001 14.3667 16.5001H2.63334C1.45731 16.5001 0.5 15.5441 0.5 14.3667C0.5 13.2691 1.332 12.3643 2.396 12.2473C2.20669 11.931 2.1 11.5614 2.1 11.1667C2.1 9.98913 3.05731 9.03338 4.23334 9.03338C4.524 9.03338 4.80134 9.09151 5.05466 9.19736C5.48131 8.17071 6.356 7.37575 7.43334 7.05469V11.1667H5.3L8.5 14.3667L11.7 11.1667H9.56666V7.05472Z" stroke="black" stroke-miterlimit="10" stroke-linecap="round" stroke-linejoin="round"/>
<path d="M10.1 3.70001V0.5L13.3 3.70001H10.1Z" stroke="black" stroke-miterlimit="10" stroke-linecap="round" stroke-linejoin="round"/>
</svg>
